<mxfile host="65bd71144e">
    <diagram id="qDj3EmOvW7GRIpu7kFnf" name="Page-1">
        <mxGraphModel dx="1568" dy="1003" grid="1" gridSize="10" guides="1" tooltips="1" connect="1" arrows="1" fold="1" page="1" pageScale="1" pageWidth="1200" pageHeight="1920" math="0" shadow="0">
            <root>
                <mxCell id="0"/>
                <mxCell id="1" parent="0"/>
                <mxCell id="96" style="edgeStyle=none;html=1;exitX=1;exitY=0.25;exitDx=0;exitDy=0;entryX=0.01;entryY=0.318;entryDx=0;entryDy=0;entryPerimeter=0;fontSize=25;strokeWidth=4;" parent="1" source="29" target="31" edge="1">
                    <mxGeometry relative="1" as="geometry"/>
                </mxCell>
                <mxCell id="100" style="edgeStyle=none;html=1;exitX=0.929;exitY=1;exitDx=0;exitDy=0;entryX=0.01;entryY=0.423;entryDx=0;entryDy=0;entryPerimeter=0;fontSize=25;strokeWidth=4;exitPerimeter=0;" parent="1" source="29" target="43" edge="1">
                    <mxGeometry relative="1" as="geometry">
                        <Array as="points">
                            <mxPoint x="300" y="360"/>
                        </Array>
                    </mxGeometry>
                </mxCell>
                <mxCell id="104" style="edgeStyle=none;html=1;fontSize=25;strokeWidth=4;" parent="1" edge="1">
                    <mxGeometry relative="1" as="geometry">
                        <mxPoint x="509.9999999999998" y="600" as="targetPoint"/>
                        <mxPoint x="260" y="160" as="sourcePoint"/>
                        <Array as="points">
                            <mxPoint x="260" y="600"/>
                        </Array>
                    </mxGeometry>
                </mxCell>
                <mxCell id="105" style="edgeStyle=none;html=1;exitX=0.54;exitY=1.043;exitDx=0;exitDy=0;entryX=0.004;entryY=0.383;entryDx=0;entryDy=0;entryPerimeter=0;fontSize=25;strokeWidth=4;exitPerimeter=0;" parent="1" source="29" target="51" edge="1">
                    <mxGeometry relative="1" as="geometry">
                        <Array as="points">
                            <mxPoint x="190" y="833"/>
                        </Array>
                    </mxGeometry>
                </mxCell>
                <mxCell id="107" style="edgeStyle=none;html=1;exitX=0.336;exitY=1.024;exitDx=0;exitDy=0;entryX=0.002;entryY=0.383;entryDx=0;entryDy=0;entryPerimeter=0;fontSize=25;strokeWidth=4;exitPerimeter=0;" parent="1" source="29" target="55" edge="1">
                    <mxGeometry relative="1" as="geometry">
                        <Array as="points">
                            <mxPoint x="140" y="1073"/>
                        </Array>
                    </mxGeometry>
                </mxCell>
                <mxCell id="109" style="edgeStyle=none;html=1;exitX=0.158;exitY=1.043;exitDx=0;exitDy=0;entryX=-0.006;entryY=0.415;entryDx=0;entryDy=0;entryPerimeter=0;fontSize=25;strokeWidth=4;exitPerimeter=0;" parent="1" source="29" target="59" edge="1">
                    <mxGeometry relative="1" as="geometry">
                        <Array as="points">
                            <mxPoint x="80" y="1320"/>
                        </Array>
                    </mxGeometry>
                </mxCell>
                <mxCell id="112" style="edgeStyle=none;html=1;entryX=-0.023;entryY=0.399;entryDx=0;entryDy=0;entryPerimeter=0;fontSize=25;strokeWidth=4;" parent="1" target="63" edge="1">
                    <mxGeometry relative="1" as="geometry">
                        <mxPoint x="40" y="160" as="sourcePoint"/>
                        <Array as="points">
                            <mxPoint x="40" y="1553"/>
                        </Array>
                    </mxGeometry>
                </mxCell>
                <mxCell id="29" value="User" style="rounded=0;whiteSpace=wrap;html=1;fontSize=25;strokeWidth=1;" parent="1" vertex="1">
                    <mxGeometry x="30" y="80" width="290" height="80" as="geometry"/>
                </mxCell>
                <mxCell id="74" style="edgeStyle=none;html=1;exitX=1;exitY=0.5;exitDx=0;exitDy=0;entryX=0;entryY=0.75;entryDx=0;entryDy=0;fontSize=25;strokeWidth=4;" parent="1" edge="1">
                    <mxGeometry relative="1" as="geometry">
                        <mxPoint x="710.0000000000032" y="101" as="sourcePoint"/>
                        <mxPoint x="970" y="101" as="targetPoint"/>
                    </mxGeometry>
                </mxCell>
                <mxCell id="99" style="edgeStyle=none;html=1;exitX=0;exitY=0.5;exitDx=0;exitDy=0;fontSize=25;strokeWidth=4;" parent="1" edge="1">
                    <mxGeometry relative="1" as="geometry">
                        <mxPoint x="320" y="140" as="targetPoint"/>
                        <mxPoint x="520.0000000000073" y="140" as="sourcePoint"/>
                    </mxGeometry>
                </mxCell>
                <mxCell id="115" style="edgeStyle=none;html=1;exitX=0.5;exitY=1;exitDx=0;exitDy=0;entryX=0.5;entryY=0;entryDx=0;entryDy=0;" parent="1" source="31" target="43" edge="1">
                    <mxGeometry relative="1" as="geometry"/>
                </mxCell>
                <mxCell id="31" value="" style="ellipse;whiteSpace=wrap;html=1;aspect=fixed;fontSize=25;strokeWidth=1;" parent="1" vertex="1">
                    <mxGeometry x="520" y="40" width="190" height="190" as="geometry"/>
                </mxCell>
                <mxCell id="32" value="" style="endArrow=none;html=1;fontSize=25;strokeWidth=1;exitX=0;exitY=0.5;exitDx=0;exitDy=0;entryX=1;entryY=0.5;entryDx=0;entryDy=0;" parent="1" source="31" target="31" edge="1">
                    <mxGeometry width="50" height="50" relative="1" as="geometry">
                        <mxPoint x="530" y="240" as="sourcePoint"/>
                        <mxPoint x="580" y="190" as="targetPoint"/>
                    </mxGeometry>
                </mxCell>
                <mxCell id="33" value="1.0" style="text;html=1;align=center;verticalAlign=middle;resizable=0;points=[];autosize=1;strokeColor=none;fillColor=none;fontSize=25;" parent="1" vertex="1">
                    <mxGeometry x="585" y="90" width="50" height="40" as="geometry"/>
                </mxCell>
                <mxCell id="34" value="Search Item" style="text;html=1;align=center;verticalAlign=middle;resizable=0;points=[];autosize=1;strokeColor=none;fillColor=none;fontSize=25;" parent="1" vertex="1">
                    <mxGeometry x="535" y="130" width="150" height="40" as="geometry"/>
                </mxCell>
                <mxCell id="101" style="edgeStyle=none;html=1;exitX=0;exitY=0.5;exitDx=0;exitDy=0;entryX=0.857;entryY=1;entryDx=0;entryDy=0;entryPerimeter=0;fontSize=25;strokeWidth=4;" parent="1" source="43" target="29" edge="1">
                    <mxGeometry relative="1" as="geometry">
                        <Array as="points">
                            <mxPoint x="280" y="375"/>
                        </Array>
                    </mxGeometry>
                </mxCell>
                <mxCell id="125" style="edgeStyle=none;html=1;exitX=0.5;exitY=1;exitDx=0;exitDy=0;entryX=0.5;entryY=0;entryDx=0;entryDy=0;" parent="1" source="43" target="47" edge="1">
                    <mxGeometry relative="1" as="geometry"/>
                </mxCell>
                <mxCell id="43" value="" style="ellipse;whiteSpace=wrap;html=1;aspect=fixed;fontSize=25;strokeWidth=1;" parent="1" vertex="1">
                    <mxGeometry x="520" y="280" width="190" height="190" as="geometry"/>
                </mxCell>
                <mxCell id="44" value="" style="endArrow=none;html=1;fontSize=25;strokeWidth=1;exitX=0;exitY=0.5;exitDx=0;exitDy=0;entryX=1;entryY=0.5;entryDx=0;entryDy=0;" parent="1" source="43" target="43" edge="1">
                    <mxGeometry width="50" height="50" relative="1" as="geometry">
                        <mxPoint x="530" y="520" as="sourcePoint"/>
                        <mxPoint x="580" y="470" as="targetPoint"/>
                    </mxGeometry>
                </mxCell>
                <mxCell id="45" value="2.0" style="text;html=1;align=center;verticalAlign=middle;resizable=0;points=[];autosize=1;strokeColor=none;fillColor=none;fontSize=25;" parent="1" vertex="1">
                    <mxGeometry x="590" y="330" width="50" height="40" as="geometry"/>
                </mxCell>
                <mxCell id="46" value="Registration" style="text;html=1;align=center;verticalAlign=middle;resizable=0;points=[];autosize=1;strokeColor=none;fillColor=none;fontSize=25;" parent="1" vertex="1">
                    <mxGeometry x="540" y="380" width="150" height="40" as="geometry"/>
                </mxCell>
                <mxCell id="103" style="edgeStyle=none;html=1;exitX=0;exitY=0.5;exitDx=0;exitDy=0;fontSize=25;strokeWidth=4;" parent="1" source="47" edge="1">
                    <mxGeometry relative="1" as="geometry">
                        <mxPoint x="240" y="160" as="targetPoint"/>
                        <Array as="points">
                            <mxPoint x="240" y="615"/>
                        </Array>
                    </mxGeometry>
                </mxCell>
                <mxCell id="118" style="edgeStyle=none;html=1;exitX=0.5;exitY=1;exitDx=0;exitDy=0;entryX=0.5;entryY=0;entryDx=0;entryDy=0;" parent="1" source="47" target="51" edge="1">
                    <mxGeometry relative="1" as="geometry"/>
                </mxCell>
                <mxCell id="47" value="" style="ellipse;whiteSpace=wrap;html=1;aspect=fixed;fontSize=25;strokeWidth=1;" parent="1" vertex="1">
                    <mxGeometry x="515" y="520" width="190" height="190" as="geometry"/>
                </mxCell>
                <mxCell id="48" value="" style="endArrow=none;html=1;fontSize=25;strokeWidth=1;exitX=0;exitY=0.5;exitDx=0;exitDy=0;entryX=1;entryY=0.5;entryDx=0;entryDy=0;" parent="1" source="47" target="47" edge="1">
                    <mxGeometry width="50" height="50" relative="1" as="geometry">
                        <mxPoint x="530" y="770" as="sourcePoint"/>
                        <mxPoint x="580" y="720" as="targetPoint"/>
                    </mxGeometry>
                </mxCell>
                <mxCell id="49" value="3.0" style="text;html=1;align=center;verticalAlign=middle;resizable=0;points=[];autosize=1;strokeColor=none;fillColor=none;fontSize=25;" parent="1" vertex="1">
                    <mxGeometry x="585" y="570" width="50" height="40" as="geometry"/>
                </mxCell>
                <mxCell id="50" value="Login" style="text;html=1;align=center;verticalAlign=middle;resizable=0;points=[];autosize=1;strokeColor=none;fillColor=none;fontSize=25;" parent="1" vertex="1">
                    <mxGeometry x="575" y="620" width="80" height="40" as="geometry"/>
                </mxCell>
                <mxCell id="106" style="edgeStyle=none;html=1;exitX=0;exitY=0.5;exitDx=0;exitDy=0;entryX=0.463;entryY=1.043;entryDx=0;entryDy=0;entryPerimeter=0;fontSize=25;strokeWidth=4;" parent="1" source="51" target="29" edge="1">
                    <mxGeometry relative="1" as="geometry">
                        <Array as="points">
                            <mxPoint x="170" y="855"/>
                        </Array>
                    </mxGeometry>
                </mxCell>
                <mxCell id="124" style="edgeStyle=none;html=1;exitX=0.5;exitY=1;exitDx=0;exitDy=0;entryX=0.442;entryY=-0.011;entryDx=0;entryDy=0;entryPerimeter=0;" parent="1" source="51" target="55" edge="1">
                    <mxGeometry relative="1" as="geometry"/>
                </mxCell>
                <mxCell id="51" value="" style="ellipse;whiteSpace=wrap;html=1;aspect=fixed;fontSize=25;strokeWidth=1;" parent="1" vertex="1">
                    <mxGeometry x="515" y="760" width="190" height="190" as="geometry"/>
                </mxCell>
                <mxCell id="52" value="" style="endArrow=none;html=1;fontSize=25;strokeWidth=1;exitX=0;exitY=0.5;exitDx=0;exitDy=0;entryX=1;entryY=0.5;entryDx=0;entryDy=0;" parent="1" source="51" target="51" edge="1">
                    <mxGeometry width="50" height="50" relative="1" as="geometry">
                        <mxPoint x="530" y="1010" as="sourcePoint"/>
                        <mxPoint x="580" y="960" as="targetPoint"/>
                    </mxGeometry>
                </mxCell>
                <mxCell id="53" value="4.0" style="text;html=1;align=center;verticalAlign=middle;resizable=0;points=[];autosize=1;strokeColor=none;fillColor=none;fontSize=25;" parent="1" vertex="1">
                    <mxGeometry x="585" y="810" width="50" height="40" as="geometry"/>
                </mxCell>
                <mxCell id="54" value="Account" style="text;html=1;align=center;verticalAlign=middle;resizable=0;points=[];autosize=1;strokeColor=none;fillColor=none;fontSize=25;" parent="1" vertex="1">
                    <mxGeometry x="560" y="860" width="110" height="40" as="geometry"/>
                </mxCell>
                <mxCell id="108" style="edgeStyle=none;html=1;exitX=0;exitY=0.5;exitDx=0;exitDy=0;entryX=0.25;entryY=1;entryDx=0;entryDy=0;fontSize=25;strokeWidth=4;" parent="1" source="55" target="29" edge="1">
                    <mxGeometry relative="1" as="geometry">
                        <Array as="points">
                            <mxPoint x="120" y="1095"/>
                        </Array>
                    </mxGeometry>
                </mxCell>
                <mxCell id="120" style="edgeStyle=none;html=1;exitX=0.5;exitY=1;exitDx=0;exitDy=0;entryX=0.5;entryY=0;entryDx=0;entryDy=0;" parent="1" source="55" target="59" edge="1">
                    <mxGeometry relative="1" as="geometry"/>
                </mxCell>
                <mxCell id="55" value="" style="ellipse;whiteSpace=wrap;html=1;aspect=fixed;fontSize=25;strokeWidth=1;" parent="1" vertex="1">
                    <mxGeometry x="520" y="1000" width="190" height="190" as="geometry"/>
                </mxCell>
                <mxCell id="56" value="" style="endArrow=none;html=1;fontSize=25;strokeWidth=1;exitX=0;exitY=0.5;exitDx=0;exitDy=0;entryX=1;entryY=0.5;entryDx=0;entryDy=0;" parent="1" source="55" target="55" edge="1">
                    <mxGeometry width="50" height="50" relative="1" as="geometry">
                        <mxPoint x="535" y="1250" as="sourcePoint"/>
                        <mxPoint x="585" y="1200" as="targetPoint"/>
                    </mxGeometry>
                </mxCell>
                <mxCell id="57" value="5.0" style="text;html=1;align=center;verticalAlign=middle;resizable=0;points=[];autosize=1;strokeColor=none;fillColor=none;fontSize=25;" parent="1" vertex="1">
                    <mxGeometry x="590" y="1050" width="50" height="40" as="geometry"/>
                </mxCell>
                <mxCell id="58" value="Buy Items" style="text;html=1;align=center;verticalAlign=middle;resizable=0;points=[];autosize=1;strokeColor=none;fillColor=none;fontSize=25;" parent="1" vertex="1">
                    <mxGeometry x="555" y="1100" width="130" height="40" as="geometry"/>
                </mxCell>
                <mxCell id="111" style="edgeStyle=none;html=1;exitX=0;exitY=0.5;exitDx=0;exitDy=0;entryX=0.103;entryY=1;entryDx=0;entryDy=0;entryPerimeter=0;fontSize=25;strokeWidth=4;" parent="1" source="59" target="29" edge="1">
                    <mxGeometry relative="1" as="geometry">
                        <Array as="points">
                            <mxPoint x="60" y="1335"/>
                        </Array>
                    </mxGeometry>
                </mxCell>
                <mxCell id="121" style="edgeStyle=none;html=1;exitX=0.5;exitY=1;exitDx=0;exitDy=0;entryX=0.5;entryY=0;entryDx=0;entryDy=0;" parent="1" source="59" target="63" edge="1">
                    <mxGeometry relative="1" as="geometry"/>
                </mxCell>
                <mxCell id="59" value="" style="ellipse;whiteSpace=wrap;html=1;aspect=fixed;fontSize=25;strokeWidth=1;" parent="1" vertex="1">
                    <mxGeometry x="520" y="1240" width="190" height="190" as="geometry"/>
                </mxCell>
                <mxCell id="60" value="" style="endArrow=none;html=1;fontSize=25;strokeWidth=1;exitX=0;exitY=0.5;exitDx=0;exitDy=0;entryX=1;entryY=0.5;entryDx=0;entryDy=0;" parent="1" source="59" target="59" edge="1">
                    <mxGeometry width="50" height="50" relative="1" as="geometry">
                        <mxPoint x="535" y="1490" as="sourcePoint"/>
                        <mxPoint x="585" y="1440" as="targetPoint"/>
                    </mxGeometry>
                </mxCell>
                <mxCell id="61" value="6.0" style="text;html=1;align=center;verticalAlign=middle;resizable=0;points=[];autosize=1;strokeColor=none;fillColor=none;fontSize=25;" parent="1" vertex="1">
                    <mxGeometry x="590" y="1290" width="50" height="40" as="geometry"/>
                </mxCell>
                <mxCell id="62" value="Make Order" style="text;html=1;align=center;verticalAlign=middle;resizable=0;points=[];autosize=1;strokeColor=none;fillColor=none;fontSize=25;" parent="1" vertex="1">
                    <mxGeometry x="545" y="1340" width="150" height="40" as="geometry"/>
                </mxCell>
                <mxCell id="114" style="edgeStyle=none;html=1;exitX=0;exitY=0.5;exitDx=0;exitDy=0;entryX=0;entryY=1;entryDx=0;entryDy=0;fontSize=25;strokeWidth=4;" parent="1" source="63" target="29" edge="1">
                    <mxGeometry relative="1" as="geometry">
                        <Array as="points">
                            <mxPoint x="20" y="1580"/>
                        </Array>
                    </mxGeometry>
                </mxCell>
                <mxCell id="63" value="" style="ellipse;whiteSpace=wrap;html=1;aspect=fixed;fontSize=25;strokeWidth=1;" parent="1" vertex="1">
                    <mxGeometry x="520" y="1480" width="190" height="190" as="geometry"/>
                </mxCell>
                <mxCell id="64" value="" style="endArrow=none;html=1;fontSize=25;strokeWidth=1;exitX=0;exitY=0.5;exitDx=0;exitDy=0;entryX=1;entryY=0.5;entryDx=0;entryDy=0;" parent="1" source="63" target="63" edge="1">
                    <mxGeometry width="50" height="50" relative="1" as="geometry">
                        <mxPoint x="535" y="1730" as="sourcePoint"/>
                        <mxPoint x="585" y="1680" as="targetPoint"/>
                    </mxGeometry>
                </mxCell>
                <mxCell id="65" value="7.0" style="text;html=1;align=center;verticalAlign=middle;resizable=0;points=[];autosize=1;strokeColor=none;fillColor=none;fontSize=25;" parent="1" vertex="1">
                    <mxGeometry x="590" y="1530" width="50" height="40" as="geometry"/>
                </mxCell>
                <mxCell id="66" value="Make Payment" style="text;html=1;align=center;verticalAlign=middle;resizable=0;points=[];autosize=1;strokeColor=none;fillColor=none;fontSize=25;" parent="1" vertex="1">
                    <mxGeometry x="530" y="1580" width="180" height="40" as="geometry"/>
                </mxCell>
                <mxCell id="75" style="edgeStyle=none;html=1;exitX=0;exitY=0.75;exitDx=0;exitDy=0;fontSize=25;strokeWidth=4;" parent="1" edge="1">
                    <mxGeometry relative="1" as="geometry">
                        <mxPoint x="710" y="140.76923076923072" as="targetPoint"/>
                        <mxPoint x="970" y="140" as="sourcePoint"/>
                    </mxGeometry>
                </mxCell>
                <mxCell id="67" value="Items Mst" style="rounded=0;whiteSpace=wrap;html=1;fontSize=25;strokeWidth=1;" parent="1" vertex="1">
                    <mxGeometry x="970" y="90" width="190" height="60" as="geometry"/>
                </mxCell>
                <mxCell id="68" value="Payment Mst" style="rounded=0;whiteSpace=wrap;html=1;fontSize=25;strokeWidth=1;" parent="1" vertex="1">
                    <mxGeometry x="970" y="1545" width="190" height="60" as="geometry"/>
                </mxCell>
                <mxCell id="69" value="Order Mst" style="rounded=0;whiteSpace=wrap;html=1;fontSize=25;strokeWidth=1;" parent="1" vertex="1">
                    <mxGeometry x="970" y="1305" width="190" height="60" as="geometry"/>
                </mxCell>
                <mxCell id="70" value="Item Mst" style="rounded=0;whiteSpace=wrap;html=1;fontSize=25;strokeWidth=1;" parent="1" vertex="1">
                    <mxGeometry x="970" y="1065" width="190" height="60" as="geometry"/>
                </mxCell>
                <mxCell id="71" value="User Mst" style="rounded=0;whiteSpace=wrap;html=1;fontSize=25;strokeWidth=1;" parent="1" vertex="1">
                    <mxGeometry x="970" y="825" width="190" height="60" as="geometry"/>
                </mxCell>
                <mxCell id="72" value="User Mst" style="rounded=0;whiteSpace=wrap;html=1;fontSize=25;strokeWidth=1;" parent="1" vertex="1">
                    <mxGeometry x="970" y="585" width="190" height="60" as="geometry"/>
                </mxCell>
                <mxCell id="73" value="User Mst" style="rounded=0;whiteSpace=wrap;html=1;fontSize=25;strokeWidth=1;" parent="1" vertex="1">
                    <mxGeometry x="970" y="345" width="190" height="60" as="geometry"/>
                </mxCell>
                <mxCell id="76" style="edgeStyle=none;html=1;exitX=1;exitY=0.5;exitDx=0;exitDy=0;entryX=0;entryY=0.75;entryDx=0;entryDy=0;fontSize=25;strokeWidth=4;" parent="1" edge="1">
                    <mxGeometry relative="1" as="geometry">
                        <mxPoint x="710.0000000000032" y="357.2299999999999" as="sourcePoint"/>
                        <mxPoint x="970" y="357.2299999999999" as="targetPoint"/>
                    </mxGeometry>
                </mxCell>
                <mxCell id="77" style="edgeStyle=none;html=1;exitX=0;exitY=0.75;exitDx=0;exitDy=0;fontSize=25;strokeWidth=4;" parent="1" edge="1">
                    <mxGeometry relative="1" as="geometry">
                        <mxPoint x="710" y="391.99923076923073" as="targetPoint"/>
                        <mxPoint x="970" y="391.23" as="sourcePoint"/>
                    </mxGeometry>
                </mxCell>
                <mxCell id="84" style="edgeStyle=none;html=1;exitX=1;exitY=0.5;exitDx=0;exitDy=0;entryX=0;entryY=0.75;entryDx=0;entryDy=0;fontSize=25;strokeWidth=4;" parent="1" edge="1">
                    <mxGeometry relative="1" as="geometry">
                        <mxPoint x="710.0000000000032" y="597.23" as="sourcePoint"/>
                        <mxPoint x="970" y="597.23" as="targetPoint"/>
                    </mxGeometry>
                </mxCell>
                <mxCell id="85" style="edgeStyle=none;html=1;exitX=0;exitY=0.75;exitDx=0;exitDy=0;fontSize=25;strokeWidth=4;" parent="1" edge="1">
                    <mxGeometry relative="1" as="geometry">
                        <mxPoint x="710" y="631.9992307692307" as="targetPoint"/>
                        <mxPoint x="970" y="631.23" as="sourcePoint"/>
                    </mxGeometry>
                </mxCell>
                <mxCell id="88" style="edgeStyle=none;html=1;exitX=1;exitY=0.5;exitDx=0;exitDy=0;entryX=0;entryY=0.75;entryDx=0;entryDy=0;fontSize=25;strokeWidth=4;" parent="1" edge="1">
                    <mxGeometry relative="1" as="geometry">
                        <mxPoint x="710.0000000000032" y="837.23" as="sourcePoint"/>
                        <mxPoint x="970" y="837.23" as="targetPoint"/>
                    </mxGeometry>
                </mxCell>
                <mxCell id="89" style="edgeStyle=none;html=1;exitX=0;exitY=0.75;exitDx=0;exitDy=0;fontSize=25;strokeWidth=4;" parent="1" edge="1">
                    <mxGeometry relative="1" as="geometry">
                        <mxPoint x="710" y="871.9992307692307" as="targetPoint"/>
                        <mxPoint x="970" y="871.23" as="sourcePoint"/>
                    </mxGeometry>
                </mxCell>
                <mxCell id="90" style="edgeStyle=none;html=1;exitX=1;exitY=0.5;exitDx=0;exitDy=0;entryX=0;entryY=0.75;entryDx=0;entryDy=0;fontSize=25;strokeWidth=4;" parent="1" edge="1">
                    <mxGeometry relative="1" as="geometry">
                        <mxPoint x="710.0000000000032" y="1077.23" as="sourcePoint"/>
                        <mxPoint x="970" y="1077.23" as="targetPoint"/>
                    </mxGeometry>
                </mxCell>
                <mxCell id="91" style="edgeStyle=none;html=1;exitX=0;exitY=0.75;exitDx=0;exitDy=0;fontSize=25;strokeWidth=4;" parent="1" edge="1">
                    <mxGeometry relative="1" as="geometry">
                        <mxPoint x="710" y="1111.9992307692307" as="targetPoint"/>
                        <mxPoint x="970" y="1111.23" as="sourcePoint"/>
                    </mxGeometry>
                </mxCell>
                <mxCell id="92" style="edgeStyle=none;html=1;exitX=1;exitY=0.5;exitDx=0;exitDy=0;entryX=0;entryY=0.75;entryDx=0;entryDy=0;fontSize=25;strokeWidth=4;" parent="1" edge="1">
                    <mxGeometry relative="1" as="geometry">
                        <mxPoint x="710.0000000000032" y="1317.2299999999998" as="sourcePoint"/>
                        <mxPoint x="970" y="1317.2299999999998" as="targetPoint"/>
                    </mxGeometry>
                </mxCell>
                <mxCell id="93" style="edgeStyle=none;html=1;exitX=0;exitY=0.75;exitDx=0;exitDy=0;fontSize=25;strokeWidth=4;" parent="1" edge="1">
                    <mxGeometry relative="1" as="geometry">
                        <mxPoint x="710" y="1351.9992307692307" as="targetPoint"/>
                        <mxPoint x="970" y="1351.23" as="sourcePoint"/>
                    </mxGeometry>
                </mxCell>
                <mxCell id="94" style="edgeStyle=none;html=1;exitX=1;exitY=0.5;exitDx=0;exitDy=0;entryX=0;entryY=0.75;entryDx=0;entryDy=0;fontSize=25;strokeWidth=4;" parent="1" edge="1">
                    <mxGeometry relative="1" as="geometry">
                        <mxPoint x="710.0000000000032" y="1557.2299999999996" as="sourcePoint"/>
                        <mxPoint x="970" y="1557.2299999999996" as="targetPoint"/>
                    </mxGeometry>
                </mxCell>
                <mxCell id="95" style="edgeStyle=none;html=1;exitX=0;exitY=0.75;exitDx=0;exitDy=0;fontSize=25;strokeWidth=4;" parent="1" edge="1">
                    <mxGeometry relative="1" as="geometry">
                        <mxPoint x="710" y="1591.999230769231" as="targetPoint"/>
                        <mxPoint x="970" y="1591.23" as="sourcePoint"/>
                    </mxGeometry>
                </mxCell>
            </root>
        </mxGraphModel>
    </diagram>
</mxfile>